<svg xmlns="http://www.w3.org/2000/svg" version="1.1" xmlns:xlink="http://www.w3.org/1999/xlink" xmlns:svgjs="http://svgjs.com/svgjs" width="1440" height="560" preserveAspectRatio="none" viewBox="0 0 1440 560"><g mask="url(&quot;#SvgjsMask3837&quot;)" fill="none"><rect width="1440" height="560" x="0" y="0" fill="url(#SvgjsLinearGradient3838)"></rect><g mask="url(&quot;#SvgjsMask3839&quot;)"><path d="M180 252L204 228M276 252L300 228M300 252L324 276L348 276M-12 276L12 276L36 276L60 252L84 252L108 252L132 252L156 252L180 252L204 252L228 252L252 252L276 252L300 252L324 252" stroke="rgba(232, 235, 238, 1)" stroke-width="4"></path><path d="M318 252 a6 6 0 1 0 12 0 a6 6 0 1 0 -12 0zM198 228 a6 6 0 1 0 12 0 a6 6 0 1 0 -12 0zM294 228 a6 6 0 1 0 12 0 a6 6 0 1 0 -12 0zM342 276 a6 6 0 1 0 12 0 a6 6 0 1 0 -12 0z" fill="rgba(232, 235, 238, 1)"></path><path d="M516 300L540 300L564 300M372 300L396 324L420 324M468 300L492 324M156 276L180 300L204 300L228 300L252 300L276 300M60 276L84 300L108 300M564 324L588 348L612 348L636 348M-12 300L12 300L36 300L60 276L84 276L108 276L132 276L156 276L180 276L204 276L228 276L252 276L276 276L300 300L324 300L348 300L372 300L396 300L420 300L444 300L468 300L492 300L516 300L540 324L564 324L588 324" stroke="rgba(232, 235, 238, 1)" stroke-width="4"></path><path d="M582 324 a6 6 0 1 0 12 0 a6 6 0 1 0 -12 0zM558 300 a6 6 0 1 0 12 0 a6 6 0 1 0 -12 0zM414 324 a6 6 0 1 0 12 0 a6 6 0 1 0 -12 0zM486 324 a6 6 0 1 0 12 0 a6 6 0 1 0 -12 0zM270 300 a6 6 0 1 0 12 0 a6 6 0 1 0 -12 0zM102 300 a6 6 0 1 0 12 0 a6 6 0 1 0 -12 0zM630 348 a6 6 0 1 0 12 0 a6 6 0 1 0 -12 0z" fill="rgba(232, 235, 238, 1)"></path><path d="M252 228L276 228M204 204L228 204L252 204M-12 252L12 252L36 252L60 228L84 228L108 228L132 228L156 228L180 204L204 204L228 228L252 228L276 204L300 204" stroke="rgba(255, 255, 255, 1)" stroke-width="4"></path><path d="M294 204 a6 6 0 1 0 12 0 a6 6 0 1 0 -12 0zM270 228 a6 6 0 1 0 12 0 a6 6 0 1 0 -12 0zM246 204 a6 6 0 1 0 12 0 a6 6 0 1 0 -12 0z" fill="rgba(255, 255, 255, 1)"></path><path d="M108 324L132 348L156 348M84 324L108 348M-12 324L12 324L36 324L60 324L84 324L108 324L132 324" stroke="rgba(255, 255, 255, 1)" stroke-width="4"></path><path d="M126 324 a6 6 0 1 0 12 0 a6 6 0 1 0 -12 0zM150 348 a6 6 0 1 0 12 0 a6 6 0 1 0 -12 0zM102 348 a6 6 0 1 0 12 0 a6 6 0 1 0 -12 0z" fill="rgba(255, 255, 255, 1)"></path><path d="M180 180L204 156L228 156M324 180L348 156L372 156L396 156L420 132L444 132L468 132L492 132L516 132M420 204L444 228L468 252L492 252L516 252M300 180L324 156L348 132L372 132L396 132L420 108L444 84M372 204L396 228L420 228L444 252L468 276M444 204L468 180L492 180L516 180M-12 228L12 228L36 228L60 204L84 204L108 204L132 204L156 204L180 180L204 180L228 180L252 180L276 180L300 180L324 180L348 180L372 204L396 204L420 204L444 204L468 204L492 204L516 204L540 204L564 204" stroke="rgba(255, 255, 255, 1)" stroke-width="4"></path><path d="M558 204 a6 6 0 1 0 12 0 a6 6 0 1 0 -12 0zM222 156 a6 6 0 1 0 12 0 a6 6 0 1 0 -12 0zM510 132 a6 6 0 1 0 12 0 a6 6 0 1 0 -12 0zM510 252 a6 6 0 1 0 12 0 a6 6 0 1 0 -12 0zM438 84 a6 6 0 1 0 12 0 a6 6 0 1 0 -12 0zM462 276 a6 6 0 1 0 12 0 a6 6 0 1 0 -12 0zM510 180 a6 6 0 1 0 12 0 a6 6 0 1 0 -12 0z" fill="rgba(255, 255, 255, 1)"></path><path d="M36 348L60 372M-12 348L12 348L36 348L60 348" stroke="rgba(255, 255, 255, 1)" stroke-width="4"></path><path d="M54 348 a6 6 0 1 0 12 0 a6 6 0 1 0 -12 0zM54 372 a6 6 0 1 0 12 0 a6 6 0 1 0 -12 0z" fill="rgba(255, 255, 255, 1)"></path><path d="M-12 204L12 204L36 180L60 180L84 180L108 180L132 180" stroke="rgba(232, 235, 238, 1)" stroke-width="4"></path><path d="M126 180 a6 6 0 1 0 12 0 a6 6 0 1 0 -12 0z" fill="rgba(232, 235, 238, 1)"></path><path d="M132 156L156 156L180 156M-12 180L12 180L36 156L60 156L84 156L108 156L132 156L156 180" stroke="rgba(255, 255, 255, 1)" stroke-width="4"></path><path d="M150 180 a6 6 0 1 0 12 0 a6 6 0 1 0 -12 0zM174 156 a6 6 0 1 0 12 0 a6 6 0 1 0 -12 0z" fill="rgba(255, 255, 255, 1)"></path><path d="M60 396L84 396L108 396L132 396L156 420M156 396L180 372L204 372L228 372L252 372M228 396L252 420M468 396L492 372M348 396L372 372L396 372L420 372M372 396L396 420L420 420L444 420L468 420M-12 396L12 396L36 396L60 396L84 372L108 372L132 372L156 396L180 396L204 396L228 396L252 396L276 396L300 396L324 396L348 396L372 396L396 396L420 396L444 396L468 396L492 396L516 420L540 420L564 420L588 420L612 396" stroke="rgba(232, 235, 238, 1)" stroke-width="4"></path><path d="M606 396 a6 6 0 1 0 12 0 a6 6 0 1 0 -12 0zM150 420 a6 6 0 1 0 12 0 a6 6 0 1 0 -12 0zM246 372 a6 6 0 1 0 12 0 a6 6 0 1 0 -12 0zM246 420 a6 6 0 1 0 12 0 a6 6 0 1 0 -12 0zM486 372 a6 6 0 1 0 12 0 a6 6 0 1 0 -12 0zM414 372 a6 6 0 1 0 12 0 a6 6 0 1 0 -12 0zM462 420 a6 6 0 1 0 12 0 a6 6 0 1 0 -12 0z" fill="rgba(232, 235, 238, 1)"></path><path d="M156 132L180 108M84 132L108 108L132 108L156 108L180 84M36 132L60 108M-12 156L12 132L36 132L60 132L84 132L108 132L132 132L156 132L180 132L204 132L228 132L252 156L276 156" stroke="rgba(255, 255, 255, 1)" stroke-width="4"></path><path d="M270 156 a6 6 0 1 0 12 0 a6 6 0 1 0 -12 0zM174 108 a6 6 0 1 0 12 0 a6 6 0 1 0 -12 0zM174 84 a6 6 0 1 0 12 0 a6 6 0 1 0 -12 0zM54 108 a6 6 0 1 0 12 0 a6 6 0 1 0 -12 0z" fill="rgba(255, 255, 255, 1)"></path></g></g><defs><mask id="SvgjsMask3837"><rect width="1440" height="560" fill="#ffffff"></rect></mask><linearGradient x1="15.28%" y1="-39.29%" x2="84.72%" y2="139.29%" gradientUnits="userSpaceOnUse" id="SvgjsLinearGradient3838"><stop stop-color="rgba(193, 133, 204, 1)" offset="0"></stop><stop stop-color="rgba(0, 111, 255, 1)" offset="1"></stop></linearGradient><mask id="SvgjsMask3839"><rect width="1440" height="560" fill="white"></rect><path d="M321 252 a3 3 0 1 0 6 0 a3 3 0 1 0 -6 0zM201 228 a3 3 0 1 0 6 0 a3 3 0 1 0 -6 0zM297 228 a3 3 0 1 0 6 0 a3 3 0 1 0 -6 0zM345 276 a3 3 0 1 0 6 0 a3 3 0 1 0 -6 0z" fill="black"></path><path d="M585 324 a3 3 0 1 0 6 0 a3 3 0 1 0 -6 0zM561 300 a3 3 0 1 0 6 0 a3 3 0 1 0 -6 0zM417 324 a3 3 0 1 0 6 0 a3 3 0 1 0 -6 0zM489 324 a3 3 0 1 0 6 0 a3 3 0 1 0 -6 0zM273 300 a3 3 0 1 0 6 0 a3 3 0 1 0 -6 0zM105 300 a3 3 0 1 0 6 0 a3 3 0 1 0 -6 0zM633 348 a3 3 0 1 0 6 0 a3 3 0 1 0 -6 0z" fill="black"></path><path d="M297 204 a3 3 0 1 0 6 0 a3 3 0 1 0 -6 0zM273 228 a3 3 0 1 0 6 0 a3 3 0 1 0 -6 0zM249 204 a3 3 0 1 0 6 0 a3 3 0 1 0 -6 0z" fill="black"></path><path d="M129 324 a3 3 0 1 0 6 0 a3 3 0 1 0 -6 0zM153 348 a3 3 0 1 0 6 0 a3 3 0 1 0 -6 0zM105 348 a3 3 0 1 0 6 0 a3 3 0 1 0 -6 0z" fill="black"></path><path d="M561 204 a3 3 0 1 0 6 0 a3 3 0 1 0 -6 0zM225 156 a3 3 0 1 0 6 0 a3 3 0 1 0 -6 0zM513 132 a3 3 0 1 0 6 0 a3 3 0 1 0 -6 0zM513 252 a3 3 0 1 0 6 0 a3 3 0 1 0 -6 0zM441 84 a3 3 0 1 0 6 0 a3 3 0 1 0 -6 0zM465 276 a3 3 0 1 0 6 0 a3 3 0 1 0 -6 0zM513 180 a3 3 0 1 0 6 0 a3 3 0 1 0 -6 0z" fill="black"></path><path d="M57 348 a3 3 0 1 0 6 0 a3 3 0 1 0 -6 0zM57 372 a3 3 0 1 0 6 0 a3 3 0 1 0 -6 0z" fill="black"></path><path d="M129 180 a3 3 0 1 0 6 0 a3 3 0 1 0 -6 0z" fill="black"></path><path d="M153 180 a3 3 0 1 0 6 0 a3 3 0 1 0 -6 0zM177 156 a3 3 0 1 0 6 0 a3 3 0 1 0 -6 0z" fill="black"></path><path d="M609 396 a3 3 0 1 0 6 0 a3 3 0 1 0 -6 0zM153 420 a3 3 0 1 0 6 0 a3 3 0 1 0 -6 0zM249 372 a3 3 0 1 0 6 0 a3 3 0 1 0 -6 0zM249 420 a3 3 0 1 0 6 0 a3 3 0 1 0 -6 0zM489 372 a3 3 0 1 0 6 0 a3 3 0 1 0 -6 0zM417 372 a3 3 0 1 0 6 0 a3 3 0 1 0 -6 0zM465 420 a3 3 0 1 0 6 0 a3 3 0 1 0 -6 0z" fill="black"></path><path d="M273 156 a3 3 0 1 0 6 0 a3 3 0 1 0 -6 0zM177 108 a3 3 0 1 0 6 0 a3 3 0 1 0 -6 0zM177 84 a3 3 0 1 0 6 0 a3 3 0 1 0 -6 0zM57 108 a3 3 0 1 0 6 0 a3 3 0 1 0 -6 0z" fill="black"></path></mask></defs></svg>